<?xml version="1.0" encoding="iso-8859-1"?>
<!-- Generator: Adobe Illustrator 19.0.0, SVG Export Plug-In . SVG Version: 6.00 Build 0)  -->
<svg version="1.1" id="Capa_1" xmlns="http://www.w3.org/2000/svg" xmlns:xlink="http://www.w3.org/1999/xlink" x="0px" y="0px"
	 viewBox="0 0 512 512" style="enable-background:new 0 0 512 512;" xml:space="preserve">
<g>
	<g>
		<path d="M420,0H92c-5.522,0-10,4.478-10,10v492c0,5.522,4.478,10,10,10h328c5.522,0,10-4.478,10-10V10C430,4.478,425.522,0,420,0z
			 M410,492H102V310h308V492z M410,290H102V20h308V290z"/>
	</g>
</g>
<g>
	<g>
		<path d="M353.968,259.202l-6.405-80.063c-1.178-14.732-12.94-30.337-26.777-35.525l-27.844-10.441
			C301.315,118.846,306,101.787,306,90c0-27.57-22.43-50-50-50s-50,22.43-50,50c0,11.787,4.685,28.846,13.059,43.173l-27.843,10.441
			c-13.838,5.188-25.601,20.793-26.778,35.524l-6.405,80.063c-0.223,2.782,0.728,5.53,2.62,7.581
			c1.893,2.052,4.556,3.218,7.347,3.218h176c2.791,0,5.454-1.166,7.348-3.217C353.241,264.732,354.191,261.984,353.968,259.202z
			 M256,60c16.542,0,30,13.458,30,30c0,19.742-16.091,50-30,50s-30-30.258-30-50C226,73.458,239.458,60,256,60z M313.232,250
			l-4.064-50.798c-0.439-5.505-5.254-9.618-10.766-9.17c-5.505,0.44-9.61,5.26-9.17,10.766L293.168,250h-74.337l3.936-49.202
			c0.44-5.506-3.665-10.325-9.17-10.766c-5.509-0.448-10.325,3.665-10.766,9.17L198.768,250h-19.936l5.541-69.267
			c0.569-7.118,7.178-15.885,13.864-18.393l33.775-12.666C238.894,155.971,246.962,160,256,160c9.038,0,17.106-4.029,23.987-10.325
			l33.776,12.666c6.687,2.508,13.295,11.274,13.864,18.394L333.168,250H313.232z"/>
	</g>
</g>
<g>
	<g>
		<path d="M380,330h-84c-5.522,0-10,4.478-10,10c0,5.522,4.478,10,10,10h84c5.522,0,10-4.478,10-10C390,334.478,385.522,330,380,330
			z"/>
	</g>
</g>
<g>
	<g>
		<path d="M236,330h-84c-5.522,0-10,4.478-10,10c0,5.522,4.478,10,10,10h84c5.522,0,10-4.478,10-10C246,334.478,241.522,330,236,330
			z"/>
	</g>
</g>
<g>
	<g>
		<path d="M350,370h-74c-5.522,0-10,4.478-10,10c0,5.522,4.478,10,10,10h74c5.522,0,10-4.478,10-10C360,374.478,355.522,370,350,370
			z"/>
	</g>
</g>
<g>
	<g>
		<path d="M236,370H132c-5.522,0-10,4.478-10,10c0,5.522,4.478,10,10,10h104c5.522,0,10-4.478,10-10
			C246,374.478,241.522,370,236,370z"/>
	</g>
</g>
<g>
	<g>
		<path d="M236,410H132c-5.522,0-10,4.478-10,10c0,5.522,4.478,10,10,10h104c5.522,0,10-4.478,10-10
			C246,414.478,241.522,410,236,410z"/>
	</g>
</g>
<g>
	<g>
		<path d="M196,450h-64c-5.51,0-10,4.49-10,10s4.49,10,10,10h64c5.51,0,10-4.49,10-10S201.51,450,196,450z"/>
	</g>
</g>
<g>
	<g>
		<path d="M236,450c-5.521,0-10,4.49-10,10s4.479,10,10,10c5.51,0,10-4.49,10-10S241.51,450,236,450z"/>
	</g>
</g>
<g>
	<g>
		<path d="M358.321,418.942c-3.906-3.903-10.236-3.903-14.142,0.001l-20.898,20.899l-11.459-11.459
			c-3.906-3.904-10.236-3.904-14.143,0c-3.905,3.905-3.905,10.237,0,14.143l18.53,18.53c1.876,1.875,4.419,2.929,7.071,2.929
			c2.652,0,5.196-1.054,7.071-2.929l27.97-27.971C362.226,429.18,362.226,422.848,358.321,418.942z"/>
	</g>
</g>
<g>
</g>
<g>
</g>
<g>
</g>
<g>
</g>
<g>
</g>
<g>
</g>
<g>
</g>
<g>
</g>
<g>
</g>
<g>
</g>
<g>
</g>
<g>
</g>
<g>
</g>
<g>
</g>
<g>
</g>
</svg>
