<?xml version="1.0" encoding="UTF-8"?>
<svg width="161px" height="161px" viewBox="0 0 161 161" version="1.1" xmlns="http://www.w3.org/2000/svg" xmlns:xlink="http://www.w3.org/1999/xlink">
    <!-- Generator: Sketch 52.2 (67145) - http://www.bohemiancoding.com/sketch -->
    <title>Artboard</title>
    <desc>Created with Sketch.</desc>
    <g id="Artboard" stroke="none" stroke-width="1" fill="none" fill-rule="evenodd">
        <path d="M102.269885,28.0978728 C95.6952717,25.4612873 88.5186933,24 81,24 C51.9202327,24 27.925181,45.7848036 24.4413543,73.9240524 C24.1501649,76.2446132 24,78.6017389 24,81.0071824 C24,112.484278 49.5267342,138 81,138 C112.486324,138 138,112.484278 138,81.0071824 C138,57.038936 123.218547,36.5273721 102.269885,28.0978728 Z M57.9528487,103.84282 C57.9528487,105.584981 56.5133325,107 54.7377529,107 C52.9621733,107 51.5147186,105.584981 51.5147186,103.84282 L51.5147186,58.1623727 C51.5147186,56.4124226 52.9621733,55 54.7377529,55 L78.754386,55 C90.8632569,55 93.5147186,64.4222089 93.5147186,68.0506291 L93.5147186,88.0958658 C93.5147186,89.8432195 92.0752025,91.2582385 90.2996229,91.2582385 C88.5187509,91.2582385 87.0765886,89.8432195 87.0765886,88.0958658 L87.0765886,68.0506291 C87.0501269,66.9549631 86.5447085,61.3156581 78.7530629,61.3156581 L57.9528487,61.3156581 L57.9528487,103.84282 Z M112.04463,90.2335247 C112.04463,95.7027678 110.426294,99.9439301 107.239457,102.855754 C103.471646,106.289446 98.6743422,106.646447 96.842239,106.646447 C96.5891281,106.646447 96.3910983,106.638658 96.26651,106.633465 L72.2432698,106.633465 C70.4754279,106.633465 69.0459415,105.221042 69.0459415,103.478881 L69.0459415,72.7937404 C69.0459415,71.0463867 70.4754279,69.6313677 72.2432698,69.6313677 C74.0006201,69.6313677 75.4301065,71.0463867 75.4301065,72.7937404 L75.4301065,100.316509 L96.3543776,100.316509 C96.4435565,100.316509 96.534047,100.316509 96.6232259,100.321701 C96.6284717,100.321701 100.39366,100.542392 102.95231,98.171911 C104.750315,96.5063428 105.6644,93.8359813 105.6644,90.2335247 L105.6644,57.8088193 C105.6644,56.0588692 107.093886,54.6464466 108.853859,54.6464466 C110.619078,54.6464466 112.045942,56.0588692 112.045942,57.8088193 L112.045942,90.2335247 L112.04463,90.2335247 Z" id="Shape" fill="#000000" fill-rule="nonzero" transform="translate(81.000000, 81.000000) scale(1, -1) rotate(-225.000000) translate(-81.000000, -81.000000) "></path>
    </g>
</svg>